<?xml version="1.0" encoding="UTF-8"?>
<svg width="132px" height="28px" viewBox="0 0 132 28" version="1.1" xmlns="http://www.w3.org/2000/svg" xmlns:xlink="http://www.w3.org/1999/xlink">
    <!-- Generator: Sketch 51.3 (57544) - http://www.bohemiancoding.com/sketch -->
    <title>Group 3</title>
    <desc>Created with Sketch.</desc>
    <defs></defs>
    <g id="Page-1" stroke="none" stroke-width="1" fill="none" fill-rule="evenodd">
        <g id="Group-3" fill="#000000">
            <path d="M0.0703226545,25.5629678 L0.0703226545,0.549999714 L4.04063506,0.549999714 L4.04063506,11.5345307 C4.04063506,11.5345307 5.49641627,9.48320262 8.47415057,9.48320262 C12.5437208,9.48320262 16.1170019,12.8910541 16.1170019,17.7216009 C16.1170019,22.5521476 12.5437208,25.9599991 8.47415057,25.9599991 C5.09938503,25.9599991 3.74286163,23.5116398 3.74286163,23.5116398 L3.74286163,25.5629678 L0.0703226545,25.5629678 Z M4.04063506,15.3724993 L4.04063506,20.0707024 C4.04063506,20.0707024 5.1655569,22.2543742 7.7793459,22.2543742 C10.4593068,22.2543742 12.0805177,20.3023039 12.0805177,17.7216009 C12.0805177,15.1408978 10.4593068,13.1888275 7.7793459,13.1888275 C5.1655569,13.1888275 4.04063506,15.3724993 4.04063506,15.3724993 Z M27.3481735,9.48320262 C31.6493453,9.48320262 35.2557124,12.8248822 35.2557124,17.655429 C35.2557124,17.9532024 35.2557124,18.5487493 35.2226265,19.1442961 L23.5102049,19.1442961 C23.8079783,20.5339055 25.4291892,22.320546 27.9106345,22.320546 C30.6567672,22.320546 32.2118062,20.7324211 32.2118062,20.7324211 L34.1969624,23.7101554 C34.1969624,23.7101554 31.7155172,25.9599991 27.9106345,25.9599991 C23.1462596,25.9599991 19.4737206,22.320546 19.4737206,17.7216009 C19.4737206,13.1226557 22.8154002,9.48320262 27.3481735,9.48320262 Z M23.5102049,16.2658196 L31.2854,16.2658196 C31.2192281,14.9092962 29.9619625,13.0895697 27.3481735,13.0895697 C24.8005564,13.0895697 23.6425486,14.8762103 23.5102049,16.2658196 Z M45.8251653,22.6514054 C48.2073527,22.6514054 49.4646183,20.8316789 49.4646183,20.8316789 L49.4646183,19.210468 C49.4646183,19.210468 48.041923,18.4164055 45.8913371,18.4164055 C44.6671575,18.4164055 42.9797747,18.9457805 42.9797747,20.6331633 C42.9797747,22.2874601 44.6009856,22.6514054 45.8251653,22.6514054 Z M46.2883684,9.48320262 C50.7880558,9.48320262 53.4349307,11.7661322 53.4349307,15.3394134 L53.4349307,25.5629678 L49.7623917,25.5629678 L49.7623917,23.5778116 C49.7623917,23.5778116 48.1411808,25.9599991 44.6009856,25.9599991 C41.6563372,25.9599991 38.9432904,24.0410148 38.9432904,20.6993352 C38.9432904,17.6885149 41.6894232,15.5048431 45.0972747,15.5048431 C47.9757512,15.5048431 49.4646183,16.6297649 49.4646183,16.6297649 L49.4646183,15.7364447 C49.4646183,13.6851166 47.4794621,13.0233978 46.0898528,13.0233978 C43.8069231,13.0233978 41.3916498,14.1814056 41.3916498,14.1814056 L40.1012982,10.9058979 C40.1012982,10.9058979 43.0128607,9.48320262 46.2883684,9.48320262 Z M66.2873132,22.2543742 C68.9672741,22.2543742 70.1583678,20.3353898 70.1583678,20.3353898 L72.7721568,22.9822648 C72.7721568,22.9822648 70.5223131,25.9599991 66.2873132,25.9599991 C61.5891102,25.9599991 57.8503993,22.320546 57.8503993,17.7216009 C57.8503993,13.0895697 61.5891102,9.48320262 66.2873132,9.48320262 C70.4892272,9.48320262 72.7059849,12.394765 72.7059849,12.394765 L69.9598522,14.8431244 C69.9598522,14.8431244 68.6695006,13.1888275 66.2873132,13.1888275 C63.6073523,13.1888275 61.8868836,15.2732415 61.8868836,17.7216009 C61.8868836,20.1699602 63.6073523,22.2543742 66.2873132,22.2543742 Z M84.1687581,9.48320262 C88.8338751,9.48320262 92.5395001,13.0895697 92.5395001,17.7216009 C92.5395001,22.320546 88.8338751,25.9599991 84.1687581,25.9599991 C79.503641,25.9599991 75.7980161,22.320546 75.7980161,17.7216009 C75.7980161,13.0895697 79.503641,9.48320262 84.1687581,9.48320262 Z M84.1687581,22.2543742 C86.8487189,22.2543742 88.5030158,20.1699602 88.5030158,17.7216009 C88.5030158,15.2732415 86.8487189,13.1888275 84.1687581,13.1888275 C81.4887972,13.1888275 79.8345004,15.2732415 79.8345004,17.7216009 C79.8345004,20.1699602 81.4887972,22.2543742 84.1687581,22.2543742 Z M105.358797,9.48320262 C108.402703,9.48320262 111.11575,11.6337885 111.11575,15.4055853 L111.11575,25.5629678 L107.145437,25.5629678 L107.145437,16.3981634 C107.145437,14.1483197 105.755828,13.1888275 104.035359,13.1888275 C101.984031,13.1888275 100.925281,15.2070697 100.925281,15.2070697 L100.925281,25.5629678 L96.9549687,25.5629678 L96.9549687,9.88023386 L100.660594,9.88023386 L100.660594,12.1631635 C100.660594,12.1631635 102.050203,9.48320262 105.358797,9.48320262 Z" id="beacon"></path>
            <text id="💡" font-family="AppleColorEmoji, Apple Color Emoji" font-size="25.4099994" font-weight="normal" letter-spacing="1.15499997">
                <tspan x="111" y="26">💡</tspan>
            </text>
        </g>
    </g>
</svg>